<svg height="512pt" viewBox="0 0 512 512" width="512pt" xmlns="http://www.w3.org/2000/svg"><path d="m8.898438 135h157.101562v-45h-166c0 15.9375 3.257812 31.085938 8.898438 45zm0 0"/><path d="m166 165h-138.984375c22 27.230469 55.25 45 92.984375 45h46zm0 0"/><path d="m314.746094 47.804688c-5.636719-27.289063-29.789063-47.804688-58.746094-47.804688s-53.109375 20.515625-58.746094 47.804688l58.746094 39.164062zm0 0"/><path d="m151 270v91h210v-91c0-16.570312-13.429688-30-30-30h-150c-16.570312 0-30 13.429688-30 30zm135-6.210938 21.210938 21.210938-21.210938 21.210938-21.210938-21.210938zm-60 0 21.210938 21.210938-21.210938 21.210938-21.210938-21.210938zm0 0"/><path d="m151 512h210v-61h-51.210938l-53.789062-53.789062-53.789062 53.789062h-51.210938zm0 0"/><path d="m346 135h157.101562c5.640626-13.914062 8.898438-29.0625 8.898438-45h-166zm0 0"/><path d="m484.984375 165h-138.984375v45h46c37.734375 0 70.984375-17.769531 92.984375-45zm0 0"/><path d="m196 210h120v-126.972656l-60 40.003906-60-40.003906zm60-66.210938 21.210938 21.210938-21.210938 21.210938-21.210938-21.210938zm0 0"/><path d="m316 391h-23.789062l23.789062 23.789062zm0 0"/><path d="m196 391v23.789062l23.789062-23.789062zm0 0"/></svg>